<?xml version="1.0" standalone="no"?>
<!DOCTYPE svg PUBLIC "-//W3C//DTD SVG 20010904//EN"
 "http://www.w3.org/TR/2001/REC-SVG-20010904/DTD/svg10.dtd">
<svg version="1.0" xmlns="http://www.w3.org/2000/svg"
 width="254.000000pt" height="282.000000pt" viewBox="0 0 254.000000 282.000000"
 preserveAspectRatio="xMidYMid meet">
<metadata>
Created by potrace 1.16, written by Peter Selinger 2001-2019
</metadata>
<g transform="translate(0.000000,282.000000) scale(0.100000,-0.100000)"
fill="#8892b0" stroke="#8892b0">
<path d="M110 2623 l0 -127 270 -271 271 -271 6 -390 6 -389 -185 180 -186
180 -1 275 -1 275 -83 83 c-45 45 -86 82 -90 82 -4 0 -7 -179 -7 -397 l0 -396
365 -366 365 -366 0 655 0 655 -359 358 c-197 196 -361 357 -364 357 -4 0 -7
-57 -7 -127z"/>
<path d="M2053 2395 l-363 -360 0 -647 c0 -357 3 -648 8 -648 4 0 44 37 90 83
l82 82 0 521 0 520 45 44 45 44 0 -512 c0 -282 3 -512 8 -512 4 0 47 39 95 88
l87 87 0 521 0 520 45 44 45 44 0 -512 c0 -282 3 -512 8 -512 4 0 45 37 90 83
l82 83 -2 649 -3 650 -362 -360z"/>
<path d="M910 2185 l0 -105 355 0 355 0 0 105 0 105 -355 0 -355 0 0 -105z"/>
<path d="M910 1920 l0 -90 260 0 260 0 0 -455 0 -455 -170 0 -170 0 0 270 0
270 -90 0 -90 0 0 -360 0 -360 355 0 355 0 0 635 0 635 -355 0 -355 0 0 -90z"/>
<path d="M911 613 l0 -58 168 -240 c99 -140 175 -240 184 -240 9 0 86 101 186
247 158 228 171 250 171 291 l0 44 -77 7 c-42 3 -201 6 -355 6 l-278 0 1 -57z"/>
</g>
</svg>
