<svg xmlns="http://www.w3.org/2000/svg" xmlns:xlink="http://www.w3.org/1999/xlink" version="1.1" id="Layer_6" x="0px" y="0px" width="1697.4px" height="641.1px" viewBox="0 0 1697.4 641.1" enable-background="new 0 0 1697.4 641.1" xml:space="preserve">
<g>
	<defs>
		<path id="SVGID_1_" d="M1387.2,175.4c4.9,18.5,23.9,29.6,42.4,24.7c18.5-4.9,29.6-23.9,24.7-42.4c-4.9-18.5-23.9-29.6-42.4-24.7    C1393.4,137.9,1382.3,156.9,1387.2,175.4 M1259.7,209.1c-23.5-88.9,29.6-180.1,118.5-203.6c88.9-23.5,180.1,29.6,203.6,118.5    c23.5,88.9-29.6,180.1-118.5,203.6C1374.3,351.1,1283.2,298,1259.7,209.1"/>
	</defs>
	<clipPath id="SVGID_2_">
		<use xlink:href="#SVGID_1_" overflow="visible"/>
	</clipPath>
	
		<rect x="1249.2" y="-5" transform="matrix(0.7071 -0.7071 0.7071 0.7071 298.3336 1053.4047)" opacity="0.2" clip-path="url(#SVGID_2_)" fill="#FFFFFF" width="343.1" height="343.1"/>
</g>
<g>
	<defs>
		<path id="SVGID_3_" d="M1516.9,463.5c11.7,44.4,57.4,71,101.8,59.2c44.4-11.7,71-57.4,59.2-101.8c-11.7-44.4-57.4-71-101.8-59.2    C1531.8,373.4,1505.2,419.1,1516.9,463.5 M1500.8,467.7c-14.1-53.4,17.7-108,71.1-122.1c53.4-14.1,108,17.7,122.1,71.1    c14.1,53.4-17.7,108-71.1,122.1C1569.6,552.9,1514.9,521.1,1500.8,467.7"/>
	</defs>
	<clipPath id="SVGID_4_">
		<use xlink:href="#SVGID_3_" overflow="visible"/>
	</clipPath>
	
		<rect x="1492.5" y="337.3" transform="matrix(0.7071 -0.7071 0.7071 0.7071 155.1939 1259.0591)" opacity="0.2" clip-path="url(#SVGID_4_)" fill="#FFFFFF" width="209.9" height="209.9"/>
</g>
<g>
	<defs>
		<path id="SVGID_5_" d="M1549.3,456.3c7.3,27.8,35.9,44.4,63.7,37.1c27.8-7.3,44.4-35.9,37.1-63.7c-7.3-27.8-35.9-44.4-63.7-37.1    C1558.6,399.9,1542,428.5,1549.3,456.3 M1533.2,460.6c-9.7-36.8,12.2-74.4,49-84.1c36.8-9.7,74.4,12.2,84.1,49    c9.7,36.8-12.2,74.4-49,84.1C1580.6,519.2,1542.9,497.3,1533.2,460.6"/>
	</defs>
	<clipPath id="SVGID_6_">
		<use xlink:href="#SVGID_5_" overflow="visible"/>
	</clipPath>
	
		<rect x="1525.9" y="369.1" transform="matrix(0.7071 -0.7071 0.7071 0.7071 155.3305 1260.9583)" opacity="0.2" clip-path="url(#SVGID_6_)" fill="#FFFFFF" width="147.7" height="147.7"/>
</g>
<g>
	<defs>
		<path id="SVGID_7_" d="M89.1,530.4c0-12.7,10.3-23.1,23-23.2c12.7,0,23.1,10.3,23.2,23c0,12.7-10.3,23.1-23,23.2    C99.5,553.4,89.1,543.1,89.1,530.4 M1.3,530.7c0.2,61.2,50,110.7,111.3,110.5c61.2-0.2,110.7-50,110.5-111.3    c-0.2-61.2-50-110.7-111.3-110.5C50.6,419.6,1.1,469.4,1.3,530.7"/>
	</defs>
	<clipPath id="SVGID_8_">
		<use xlink:href="#SVGID_7_" overflow="visible"/>
	</clipPath>
	
		<rect x="-3.7" y="414.4" transform="matrix(0.5 -0.866 0.866 0.5 -403.1351 362.2907)" opacity="0.2" clip-path="url(#SVGID_8_)" fill="#FFFFFF" width="231.8" height="231.8"/>
</g>
<g>
	<defs>
		<path id="SVGID_9_" d="M123.3,322.6c-0.1-30.6,24.7-55.5,55.2-55.6c30.6-0.1,55.5,24.7,55.6,55.2c0.1,30.6-24.7,55.5-55.2,55.6    C148.4,378,123.5,353.2,123.3,322.6 M112.3,322.7c0.1,36.7,30,66.4,66.8,66.3c36.7-0.1,66.4-30,66.3-66.8    c-0.1-36.7-30-66.4-66.8-66.3C141.8,256,112.1,285.9,112.3,322.7"/>
	</defs>
	<clipPath id="SVGID_10_">
		<use xlink:href="#SVGID_9_" overflow="visible"/>
	</clipPath>
	
		<rect x="107.2" y="250.9" transform="matrix(0.5 -0.866 0.866 0.5 -189.8356 316.0442)" opacity="0.2" clip-path="url(#SVGID_10_)" fill="#FFFFFF" width="143.1" height="143.1"/>
</g>
<g>
	<defs>
		<path id="SVGID_11_" d="M145.4,322.2c-0.1-19.1,15.4-34.7,34.5-34.8c19.1-0.1,34.7,15.4,34.8,34.6c0.1,19.1-15.4,34.7-34.5,34.8    C161.1,356.8,145.5,341.3,145.4,322.2 M134.3,322.2c0.1,25.3,20.7,45.7,45.9,45.6c25.3-0.1,45.7-20.7,45.6-45.9    c-0.1-25.3-20.7-45.7-45.9-45.6C154.6,276.4,134.2,297,134.3,322.2"/>
	</defs>
	<clipPath id="SVGID_12_">
		<use xlink:href="#SVGID_11_" overflow="visible"/>
	</clipPath>
	
		<rect x="129.3" y="271.3" transform="matrix(0.5 -0.866 0.866 0.5 -188.8918 316.9881)" opacity="0.2" clip-path="url(#SVGID_12_)" fill="#FFFFFF" width="101.5" height="101.5"/>
</g>
<g>
	<defs>
		<path id="SVGID_13_" d="M43.7,130.9c24.2-0.1,43.9,19.5,44,43.7c0.1,24.2-19.5,44-43.7,44c-24.2,0.1-43.9-19.5-44-43.7    C-0.1,150.7,19.5,131,43.7,130.9"/>
	</defs>
	<clipPath id="SVGID_14_">
		<use xlink:href="#SVGID_13_" overflow="visible"/>
	</clipPath>
	
		<rect x="-5" y="125.9" transform="matrix(0.5 -0.866 0.866 0.5 -129.4321 125.396)" opacity="0.2" clip-path="url(#SVGID_14_)" fill="#FFFFFF" width="97.8" height="97.8"/>
</g>
</svg>